<?xml version="1.0" encoding="utf-8"?>
<!-- Generator: Adobe Illustrator 18.1.0, SVG Export Plug-In . SVG Version: 6.00 Build 0)  -->
<!DOCTYPE svg PUBLIC "-//W3C//DTD SVG 1.1//EN" "http://www.w3.org/Graphics/SVG/1.1/DTD/svg11.dtd">
<svg version="1.1" id="Layer_1" xmlns="http://www.w3.org/2000/svg" xmlns:xlink="http://www.w3.org/1999/xlink" x="0px" y="0px"
	 width="40px" height="40px" viewBox="0 0 40 40" style="enable-background:new 0 0 40 40;" xml:space="preserve">
<style type="text/css">
	.st0{fill:none;stroke:#585C5E;stroke-width:2;stroke-miterlimit:10;}
	.st1{fill:none;stroke:#69AA6F;stroke-width:2;stroke-linejoin:bevel;stroke-miterlimit:10;}
</style>
<path class="st0" d="M31,17H9c-4.4,0-8,3.5-8,7.9S4.6,33,9,33c2.8,0,5.3-1.8,6.7-4h8.7c1.4,2.2,3.9,4,6.7,4c4.4,0,8-3.7,8-8.1
	S35.4,17,31,17z"/>
<line class="st1" x1="9" y1="20" x2="9" y2="30"/>
<line class="st1" x1="14" y1="25" x2="4" y2="25"/>
<circle class="st1" cx="31" cy="25" r="4"/>
<line class="st1" x1="31" y1="20.7" x2="31" y2="29.3"/>
<line class="st1" x1="35.3" y1="25" x2="26.7" y2="25"/>
<polyline class="st0" points="20,17 20,13 29,13 29,8 22,8 22,4 "/>
</svg>
