<?xml version="1.0" encoding="utf-8"?>
<!-- Generator: Adobe Illustrator 18.1.0, SVG Export Plug-In . SVG Version: 6.00 Build 0)  -->
<!DOCTYPE svg PUBLIC "-//W3C//DTD SVG 1.1//EN" "http://www.w3.org/Graphics/SVG/1.1/DTD/svg11.dtd">
<svg version="1.1" id="Layer_1" xmlns="http://www.w3.org/2000/svg" xmlns:xlink="http://www.w3.org/1999/xlink" x="0px" y="0px"
	 width="40px" height="40px" viewBox="0 0 40 40" style="enable-background:new 0 0 40 40;" xml:space="preserve">
<style type="text/css">
	.st0{fill:none;stroke:#585C5E;stroke-width:2;stroke-miterlimit:10;}
	.st1{fill:none;stroke:#69AA6F;stroke-width:2;stroke-miterlimit:10;}
</style>
<rect x="28.4" y="21.5" transform="matrix(-0.7071 0.7071 -0.7071 -0.7071 73.8098 28.7576)" class="st0" width="5.1" height="16.2"/>
<polygon class="st0" points="7.7,10 11.3,6.4 5.3,2.8 4.1,4 "/>
<line class="st0" x1="15.1" y1="13.9" x2="9.5" y2="8.2"/>
<path class="st1" d="M35.5,7.9l-4.8,2.3l-2.4-2.5l2.1-4.9l0,0c-6,0-7.6,3-7.6,6v2.4L2.6,31.8l-1.1,3.6l1.3,1.2l3.7-0.9L27,15.5h2.4
	C32.5,15.5,35.5,14,35.5,7.9L35.5,7.9z"/>
</svg>
